<svg width="42" height="42" viewBox="0 0 42 42" fill="none" xmlns="http://www.w3.org/2000/svg">
<path d="M28.949 23.654C29.4575 21.9402 29.0391 19.9949 28.5946 18.6469C28.5917 18.5948 28.5767 18.5442 28.551 18.4999C28.3999 18.0621 28.2605 17.7024 28.1414 17.4429C28.3606 17.3489 28.5053 17.1214 28.5074 16.8674V14.2622C28.5074 13.9167 28.2473 13.6367 27.9264 13.6367H20.7881C20.6277 13.6364 20.4974 13.7762 20.4971 13.9489C20.4971 13.9554 20.4972 13.9618 20.4976 13.9682C20.5963 15.8447 20.4685 17.1176 20.0995 18.0152C20.0922 18.0241 20.0854 18.0335 20.0792 18.0433C20.0781 18.0589 20.0781 18.0746 20.0792 18.0902C19.9384 18.417 19.7479 18.7161 19.5156 18.9753L19.4894 18.9941C19.4894 18.9941 19.4894 18.9941 19.4894 19.016C19.1488 19.3657 18.756 19.6511 18.3273 19.8604C17.5804 20.2171 16.814 20.5242 16.0321 20.7799L15.884 20.833C13.1675 21.8026 12.8131 23.5602 12.8189 24.4421C12.8182 24.4546 12.8182 24.4672 12.8189 24.4797V26.7127C12.8193 26.8214 12.8721 26.922 12.9584 26.9785C13.6241 27.4146 14.3427 27.7492 15.0937 27.9731C15.2482 28.0198 15.4086 27.9229 15.4521 27.7566C15.4602 27.7253 15.4638 27.6928 15.4627 27.6603V27.5884H15.8898V27.9011C15.8879 28.0561 15.9918 28.1891 16.1338 28.2139C16.3866 28.2577 16.6394 28.2921 16.8863 28.314C16.9672 28.3213 17.0473 28.2918 17.1071 28.2326C17.1669 28.1729 17.2006 28.089 17.2001 28.0012V27.6071H17.6271V28.0512C17.6271 28.224 17.7572 28.364 17.9177 28.364C18.1617 28.364 18.4058 28.364 18.6672 28.3265C18.8186 28.3134 18.935 28.1771 18.9345 28.0137V27.6071H19.3616V27.8824C19.3595 28.0551 19.4879 28.1969 19.6484 28.1991C19.6652 28.1994 19.682 28.198 19.6986 28.1951C20.2319 28.1072 20.7576 27.9723 21.2704 27.7917L21.3169 27.7698C23.3506 26.5188 24.6405 27.5477 24.6928 27.5915C24.7435 27.6339 24.8058 27.6569 24.87 27.6572H25.2303C25.3907 27.6572 25.5208 27.5171 25.5208 27.3444V26.8159H25.9363V27.3382C25.9363 27.5109 26.0663 27.6509 26.2268 27.6509H27.1623C27.3227 27.6509 27.4528 27.5109 27.4528 27.3382V26.8159H27.8828V27.3382C27.8828 27.5109 28.0129 27.6509 28.1733 27.6509H28.8909C29.0514 27.6509 29.1815 27.5109 29.1815 27.3382V23.9668C29.1843 23.8158 29.0865 23.6842 28.949 23.654ZM22.0548 14.2685H27.9119V16.858H22.0548V14.2685ZM18.4029 20.5047L18.4058 20.5234C18.6439 20.7315 18.8637 20.9629 19.0624 21.2146C19.0097 21.3089 18.9825 21.4172 18.9839 21.5273C18.9819 21.8572 19.2288 22.1264 19.5352 22.1286C19.8417 22.1307 20.0917 21.865 20.0937 21.5351C20.0956 21.2243 19.8758 20.9639 19.5882 20.9362C19.4045 20.6665 19.1951 20.4181 18.9636 20.195C19.2232 20.036 19.4675 19.8495 19.6928 19.6383C19.9746 19.9229 20.2367 20.2292 20.4772 20.5547C20.3762 20.8661 20.5288 21.2068 20.8181 21.3156C21.1074 21.4244 21.4238 21.2602 21.5249 20.9488C21.626 20.6373 21.4734 20.2966 21.1841 20.1878C21.1241 20.1652 21.0609 20.1539 20.9973 20.1544H20.9276C20.6727 19.809 20.395 19.484 20.0966 19.1817C20.2351 18.9982 20.3576 18.8014 20.4627 18.5938C20.9125 18.8458 21.3472 19.1278 21.7643 19.4382C21.7614 19.7715 22.0101 20.0442 22.3198 20.0473C22.6295 20.0504 22.8828 19.7827 22.8857 19.4493C22.8885 19.116 22.6398 18.8433 22.3301 18.8402C22.2417 18.8393 22.1543 18.8609 22.0751 18.9034C21.6361 18.5834 21.1791 18.2931 20.7067 18.0339C21.0234 17.127 21.16 15.9229 21.0961 14.281H21.4766V16.8705C21.4766 17.216 21.7368 17.496 22.0577 17.496H27.5022C27.5777 17.6618 27.7056 17.9495 27.845 18.3248H27.7259C25.961 18.3385 24.5405 19.8898 24.5533 21.7898C24.5605 22.8694 25.0382 23.8828 25.8433 24.5266C23.4929 25.1927 19.9572 25.984 16.9822 25.7776C17.5313 23.4163 16.8747 21.9621 16.4476 21.324C17.1127 21.0892 17.7654 20.8157 18.4029 20.5047ZM15.8636 21.5023C16.1774 21.8995 16.9967 23.2349 16.3953 25.69C15.3485 25.6014 14.3317 25.2707 13.4145 24.7205C13.4041 24.649 13.3973 24.577 13.3942 24.5047V24.4828C13.3709 23.8166 13.6033 22.3749 15.8636 21.5023ZM28.4639 27.0254V26.5031C28.4639 26.3304 28.3338 26.1904 28.1733 26.1904H27.1652C27.0047 26.1904 26.8747 26.3304 26.8747 26.5031V27.0254H26.5173V26.5031C26.5173 26.3304 26.3872 26.1904 26.2268 26.1904H25.2245C25.064 26.1904 24.9339 26.3304 24.9339 26.5031V27.0129C24.5388 26.7471 23.0949 25.9746 21.0467 27.2068C20.6823 27.3363 20.3106 27.4408 19.9339 27.5196V27.3038C19.9339 27.1311 19.8039 26.991 19.6434 26.991H18.6411C18.4806 26.991 18.3506 27.1311 18.3506 27.3038V27.7322H18.2024V27.2944C18.2024 27.1217 18.0723 26.9816 17.9119 26.9816H16.9037C16.7433 26.9816 16.6132 27.1217 16.6132 27.2944V27.6666L16.465 27.6447V27.2944C16.465 27.1217 16.335 26.9816 16.1745 26.9816H15.1664C15.0186 26.9805 14.8936 27.0989 14.8758 27.2569C14.3602 27.0741 13.8636 26.8341 13.3942 26.5407V25.421C14.6609 26.1435 16.2994 26.4156 18.0426 26.4156C22.6736 26.4156 27.9729 24.5078 28.5975 24.2795L28.6004 27.0254H28.4639ZM28.3215 23.7259C28.0745 23.8135 27.4673 24.0387 26.6277 24.2795C25.3279 23.6023 24.7841 21.919 25.4132 20.5197C25.8435 19.5625 26.7382 18.9481 27.7259 18.9315C27.8405 18.9298 27.955 18.9361 28.0687 18.9503L28.0716 18.9597C28.4987 20.2857 28.8822 22.1778 28.3215 23.7259Z" fill="#0266C1"/>
<path d="M23.1736 14.6469C22.7067 14.6469 22.3281 15.0544 22.3281 15.557C22.3297 16.0589 22.7073 16.4654 23.1736 16.4671C23.6405 16.4671 24.019 16.0596 24.019 15.557C24.019 15.0544 23.6405 14.6469 23.1736 14.6469ZM23.1736 15.8416C23.0275 15.8416 22.9092 15.7142 22.9092 15.557C22.9092 15.3998 23.0275 15.2724 23.1736 15.2724C23.3196 15.2724 23.4379 15.3998 23.4379 15.557C23.4379 15.7142 23.3196 15.8416 23.1736 15.8416Z" fill="#0266C1"/>
<rect x="0.5" y="0.5" width="41" height="41" stroke="#0266C1"/>
</svg>
