<svg width="42" height="42" viewBox="0 0 42 42" fill="none" xmlns="http://www.w3.org/2000/svg">
<path d="M20.7468 25.2904C20.1923 22.9481 18.5616 20.9767 16.3164 19.9342C15.2107 19.4209 14.0152 19.1603 12.8184 19.1526C12.8884 20.8124 13.501 22.4281 14.5981 23.7545C16.1405 25.6192 18.4737 26.7109 20.9454 26.7268C20.9252 26.2471 20.8594 25.7664 20.7468 25.2904ZM20.7468 25.2904C20.2916 23.3675 19.1111 21.6947 17.4608 20.5805C17.4887 20.4143 17.5221 20.2485 17.5612 20.0833C18.0304 18.1015 19.2699 16.3852 21.0001 15.2725C22.7304 16.3852 23.9699 18.1015 24.4391 20.0833C24.4782 20.2485 24.5116 20.4143 24.5395 20.5804C22.8892 21.6946 21.7088 23.3675 21.2536 25.2904M20.7468 25.2904C20.8594 25.7662 20.9251 26.2468 20.9453 26.7264C20.9795 26.7268 21.0138 26.727 21.0481 26.727C21.7409 26.727 22.4233 26.6424 23.0809 26.4799C23.0846 26.475 23.0883 26.47 23.0921 26.4651C22.4336 26.6329 21.7498 26.7223 21.055 26.7268M21.2536 25.2904C21.8081 22.9481 23.4387 20.9767 25.6839 19.9342C26.7896 19.4209 27.9851 19.1603 29.182 19.1526C29.112 20.8124 28.4994 22.4281 27.4022 23.7545C25.8599 25.6192 23.5266 26.7109 21.055 26.7268M21.2536 25.2904C21.1409 25.7664 21.0752 26.2471 21.055 26.7268" stroke="#0266C1" stroke-linecap="round" stroke-linejoin="round"/>
<rect x="0.5" y="0.5" width="41" height="41" stroke="#0266C1"/>
</svg>
