<svg width="42" height="42" viewBox="0 0 42 42" fill="none" xmlns="http://www.w3.org/2000/svg">
<g clip-path="url(#clip0_10267_65)">
<path d="M26.8443 19.1735H22.4612C21.0895 19.1735 19.9775 20.2938 19.9775 21.6756C19.9775 23.0575 21.0895 24.1778 22.4612 24.1778H24.3606C25.7323 24.1778 26.8443 25.298 26.8443 26.6799C26.8443 28.0618 25.7323 29.182 24.3606 29.182H15.156M17.4937 25.034C17.4937 23.7334 16.4471 22.679 15.156 22.679C13.865 22.679 12.8184 23.7334 12.8184 25.034V25.1225C12.8184 25.6389 12.9808 26.142 13.2823 26.5597L15.1514 29.1487C15.1537 29.1519 15.1584 29.1519 15.1606 29.1487L17.0298 26.5597C17.3313 26.142 17.4937 25.6389 17.4937 25.1225V25.034ZM15.6079 24.0646L15.622 24.0713C15.9049 24.2061 16.1112 24.4637 16.182 24.7708C16.2536 25.0814 16.1767 25.4105 15.9772 25.658C15.7799 25.9028 15.4814 26.0476 15.1684 26.0476H15.1436C14.8306 26.0476 14.5322 25.9028 14.3349 25.658C14.1354 25.4105 14.0584 25.0814 14.13 24.7708C14.2009 24.4637 14.4072 24.2061 14.6901 24.0713L14.7041 24.0646C14.9902 23.9283 15.3218 23.9283 15.6079 24.0646ZM29.182 15.1898C29.182 13.8893 28.1354 12.8184 26.8443 12.8184C25.5533 12.8184 24.5067 13.8893 24.5067 15.1898C24.5067 15.7011 24.6703 16.2043 24.9733 16.6145L26.8397 19.141C26.842 19.1441 26.8467 19.1441 26.849 19.141L28.7153 16.6145C29.0184 16.2043 29.182 15.7011 29.182 15.1898ZM27.2899 14.1695L27.3216 14.1842C27.5973 14.3126 27.7992 14.5612 27.8694 14.8588C27.9415 15.164 27.8668 15.4856 27.6677 15.7269L27.6578 15.739C27.4637 15.9743 27.1758 16.1104 26.8722 16.1104H26.8165C26.5128 16.1104 26.225 15.9743 26.0309 15.739L26.0209 15.7269C25.8219 15.4856 25.7472 15.164 25.8192 14.8588C25.8895 14.5612 26.0914 14.3126 26.367 14.1842L26.3988 14.1695C26.6814 14.0378 27.0072 14.0378 27.2899 14.1695Z" stroke="#0266C1" stroke-linecap="round"/>
</g>
<rect x="0.5" y="0.5" width="41" height="41" stroke="#0266C1"/>
<defs>
<clipPath id="clip0_10267_65">
<rect width="18" height="18" fill="white" transform="translate(12 12)"/>
</clipPath>
</defs>
</svg>
