<svg width="42" height="42" viewBox="0 0 42 42" fill="none" xmlns="http://www.w3.org/2000/svg">
<path d="M19.1595 20.9282L21.0004 22.7643L24.222 19.551M21.0003 12.8184C19.1011 13.7895 16.9852 14.3059 14.8223 14.3059C14.5303 14.3059 14.2391 14.2965 13.9492 14.2778C13.5751 15.985 13.5337 17.7613 13.8425 19.5082C14.3953 22.6354 16.0352 25.4684 18.474 27.5096C19.256 28.164 20.104 28.7237 21.0004 29.182C21.8967 28.7237 22.7448 28.164 23.5267 27.5096C25.9656 25.4684 27.6054 22.6354 28.1582 19.5082C28.4671 17.7613 28.4257 15.985 28.0515 14.2778C27.7616 14.2965 27.4704 14.3059 27.1784 14.3059C25.0155 14.3059 22.8995 13.7895 21.0003 12.8184Z" stroke="#0266C1"/>
<rect x="0.5" y="0.5" width="41" height="41" stroke="#0266C1"/>
</svg>
